<?xml version="1.0" standalone="no"?>
<!DOCTYPE svg PUBLIC "-//W3C//DTD SVG 20010904//EN"
 "http://www.w3.org/TR/2001/REC-SVG-20010904/DTD/svg10.dtd">
<svg version="1.0" xmlns="http://www.w3.org/2000/svg"
 width="1179.000000pt" height="1127.000000pt" viewBox="0 0 1179.000000 1127.000000"
 preserveAspectRatio="xMidYMid meet">

<g transform="translate(0.000000,1127.000000) scale(0.100000,-0.100000)"
fill="#000000" stroke="none">
<path d="M5480 11240 c-8 -5 -32 -10 -53 -10 -30 0 -44 -7 -78 -42 l-41 -42
-116 2 c-155 3 -286 -15 -427 -58 -38 -12 -74 -26 -79 -31 -6 -5 -16 -9 -23
-9 -8 0 -39 -19 -70 -42 -46 -35 -67 -44 -117 -50 -141 -17 -244 -37 -252 -49
-3 -5 -18 -9 -34 -9 -16 0 -31 -4 -34 -9 -3 -4 -27 -14 -53 -21 -27 -7 -52
-16 -58 -20 -5 -4 -46 -23 -89 -41 -44 -18 -94 -41 -110 -52 -193 -121 -234
-148 -251 -165 -11 -11 -45 -38 -75 -60 -59 -44 -184 -165 -267 -258 -47 -54
-206 -262 -214 -281 -7 -14 -93 -158 -99 -163 -6 -6 -10 -14 -85 -175 -59
-125 -105 -250 -105 -283 0 -41 -27 -49 -180 -55 -80 -3 -163 -11 -185 -17
-22 -6 -58 -16 -80 -22 -65 -17 -221 -96 -321 -162 -59 -39 -166 -147 -227
-229 -34 -45 -64 -84 -67 -87 -7 -7 -26 -40 -73 -130 -21 -41 -45 -80 -53 -86
-8 -6 -14 -15 -14 -19 0 -9 -101 -209 -109 -215 -3 -3 -27 -36 -53 -73 -66
-97 -224 -257 -253 -257 -4 0 -18 -11 -31 -25 -13 -14 -26 -25 -29 -25 -4 0
-26 -13 -50 -30 -24 -16 -48 -30 -53 -30 -6 0 -12 -3 -14 -7 -4 -10 -74 -63
-83 -63 -3 0 -11 -5 -18 -10 -55 -47 -110 -80 -131 -80 -14 0 -29 -6 -33 -13
-4 -8 -39 -40 -78 -72 -106 -89 -169 -151 -248 -245 -40 -47 -74 -87 -77 -90
-33 -30 -190 -309 -190 -336 0 -7 -27 -70 -41 -96 -5 -10 -9 -27 -9 -37 0 -11
-4 -22 -9 -25 -20 -13 -43 -209 -38 -316 8 -126 31 -196 96 -277 38 -49 139
-113 177 -113 31 0 49 -16 37 -32 -58 -75 -93 -341 -62 -476 35 -156 34 -154
65 -213 38 -72 79 -125 143 -186 53 -51 72 -63 98 -63 18 0 33 -3 33 -7 0 -11
50 -33 72 -33 10 0 18 -3 18 -7 0 -28 158 -57 273 -51 50 3 80 1 85 -6 3 -6 7
-51 7 -101 2 -239 101 -400 315 -511 136 -71 391 -84 556 -28 112 38 274 161
360 273 73 96 68 92 117 75 185 -65 349 -56 577 33 173 67 324 192 461 380 33
45 65 96 70 113 15 41 38 38 91 -10 23 -22 46 -40 51 -40 24 -1 127 -56 127
-68 0 -17 66 -150 86 -173 8 -8 14 -20 14 -25 0 -5 -30 -32 -66 -59 -115 -86
-187 -184 -274 -375 -4 -8 -15 -47 -24 -85 -10 -39 -19 -77 -22 -87 -3 -9 -29
-28 -58 -42 -107 -52 -325 -280 -376 -391 -61 -135 -100 -256 -100 -312 0 -26
-8 -33 -97 -78 -286 -147 -440 -484 -382 -832 l12 -68 -47 -88 c-25 -49 -46
-95 -46 -103 0 -8 -4 -22 -9 -32 -31 -61 -50 -263 -32 -342 6 -25 13 -58 16
-75 20 -96 83 -202 175 -295 69 -71 100 -94 167 -126 51 -24 83 -45 83 -55 0
-22 53 -102 92 -139 36 -34 173 -104 226 -115 18 -4 36 -14 39 -22 6 -14 -11
-97 -41 -203 -22 -76 -21 -100 4 -100 11 0 20 -4 20 -10 0 -5 6 -10 14 -10 8
0 26 -14 41 -31 14 -17 27 -30 29 -28 7 7 83 329 88 369 2 17 9 25 23 26 60 3
147 86 192 183 28 60 29 61 92 81 136 45 245 113 334 211 37 40 74 88 83 108
l17 35 26 -34 c184 -245 484 -373 796 -338 115 12 186 34 300 89 112 54 144
77 229 164 105 108 169 219 214 375 21 71 23 363 3 465 -43 226 -154 490 -270
645 -211 282 -443 447 -730 523 -103 26 -132 30 -266 30 -121 1 -170 -4 -255
-22 -186 -41 -373 -113 -512 -197 -163 -99 -310 -237 -310 -290 0 -82 78 -110
142 -52 128 117 210 175 375 267 53 30 187 79 280 102 76 20 117 23 260 24
148 0 180 -3 248 -23 223 -64 443 -221 596 -424 101 -133 210 -349 246 -489
77 -302 58 -535 -61 -713 -52 -80 -60 -78 -68 12 -9 109 -39 238 -61 262 -23
25 -86 27 -110 3 -19 -19 -18 -55 8 -228 9 -55 18 -133 21 -173 5 -68 3 -73
-19 -88 -38 -25 -184 -84 -224 -90 l-37 -6 4 63 c4 53 -9 208 -23 284 -12 62
-102 88 -146 44 -20 -20 -21 -27 -13 -98 5 -42 9 -123 9 -181 l0 -105 -50 3
c-89 4 -173 39 -296 123 -137 93 -223 251 -284 519 -24 106 -37 124 -87 117
-56 -8 -70 -29 -64 -102 3 -33 11 -91 18 -130 19 -110 16 -173 -11 -227 -55
-108 -161 -212 -276 -270 -58 -29 -173 -68 -203 -68 -25 0 -40 -19 -48 -61
-11 -57 -43 -113 -81 -141 -29 -23 -47 -28 -91 -28 -99 0 -235 82 -275 167
-11 21 -24 49 -30 62 -8 17 -26 28 -57 36 -145 38 -281 175 -331 334 -31 103
-29 262 5 364 14 43 46 108 70 145 l44 67 -19 80 c-22 95 -24 158 -5 280 32
213 148 378 326 461 41 20 85 40 97 46 28 14 29 19 43 120 33 239 182 473 378
592 34 21 79 42 100 48 53 15 60 23 67 86 23 197 131 384 289 497 35 25 67 45
70 45 4 0 49 -20 100 -44 135 -65 298 -115 330 -103 23 9 48 72 40 102 -8 32
-34 48 -151 91 -54 21 -129 56 -167 78 -112 67 -207 189 -230 293 -7 29 -17
37 -89 71 -148 70 -216 135 -299 285 -37 68 -97 229 -96 257 1 8 0 63 0 122
l-2 106 -63 35 c-34 20 -82 55 -105 79 -90 91 -138 252 -113 385 12 68 60 185
80 197 20 13 12 75 -19 138 -101 208 -96 366 17 525 24 34 50 66 58 70 9 6 15
34 19 88 11 187 45 325 129 535 130 326 302 562 605 830 293 258 753 504 1199
640 l93 28 62 -21 c58 -19 80 -21 268 -17 421 9 606 5 760 -18 194 -28 224
-30 302 -21 73 9 50 16 277 -87 161 -74 481 -278 654 -418 147 -119 319 -282
390 -371 9 -11 38 -47 65 -80 174 -213 290 -473 350 -785 17 -85 36 -191 42
-235 17 -120 17 -118 64 -181 59 -80 83 -131 107 -226 46 -184 9 -385 -101
-548 -35 -53 -37 -76 -9 -154 11 -32 23 -95 26 -140 13 -189 -71 -342 -231
-419 -40 -20 -78 -42 -84 -49 -5 -7 -12 -69 -14 -138 -3 -110 -6 -132 -29
-180 -80 -168 -237 -293 -397 -315 -61 -8 -73 -22 -92 -105 -16 -70 -40 -111
-104 -178 -84 -88 -156 -116 -326 -127 -118 -8 -140 -19 -140 -70 0 -74 105
-108 263 -86 122 18 209 54 300 125 l38 30 56 -29 c81 -44 199 -172 245 -265
42 -86 54 -128 68 -224 6 -38 15 -75 21 -82 5 -7 28 -15 49 -19 46 -8 184
-102 251 -172 85 -88 165 -211 192 -293 23 -72 38 -140 43 -199 7 -77 18 -93
95 -132 51 -25 174 -112 203 -142 63 -67 124 -182 150 -285 22 -89 21 -238 -4
-335 l-20 -78 49 -73 c68 -100 93 -190 94 -326 0 -91 -4 -115 -27 -175 -29
-74 -68 -140 -113 -191 -38 -42 -144 -112 -199 -131 -24 -8 -44 -20 -44 -26 0
-7 -13 -40 -29 -74 -64 -134 -255 -213 -366 -150 -30 17 -48 38 -73 87 -17 36
-34 76 -35 90 -4 25 -5 25 -117 56 -96 26 -191 79 -266 148 -83 76 -151 181
-160 246 -5 39 4 153 22 272 9 59 -1 85 -39 97 -58 20 -64 13 -111 -131 -7
-24 -19 -63 -26 -88 -45 -164 -104 -274 -196 -359 -98 -91 -259 -164 -384
-173 l-35 -3 0 105 c0 58 3 139 5 182 4 65 2 79 -14 97 -26 28 -86 29 -111 1
-28 -31 -45 -131 -45 -268 l0 -123 -52 7 c-61 8 -122 30 -193 70 -62 34 -75
51 -70 89 18 136 30 204 52 290 14 55 27 110 30 122 12 53 -65 101 -116 74
-24 -13 -52 -97 -85 -256 -16 -73 -28 -111 -37 -113 -17 -3 -62 83 -90 173
-95 298 20 743 276 1070 162 207 338 331 570 402 85 25 101 27 280 27 200 0
231 -5 386 -59 146 -50 354 -178 483 -295 91 -82 140 -91 171 -30 26 50 19 68
-52 139 -203 201 -520 355 -825 401 -131 19 -339 15 -441 -9 -291 -69 -532
-231 -726 -489 -131 -173 -219 -365 -302 -662 -16 -57 -28 -323 -18 -401 28
-226 138 -415 321 -555 68 -51 200 -117 283 -140 80 -22 304 -30 402 -14 199
32 376 129 520 284 60 65 67 69 77 52 25 -43 148 -176 193 -208 59 -43 178
-100 258 -124 29 -9 38 -21 72 -98 23 -54 88 -119 150 -151 60 -31 52 -14 103
-240 17 -77 33 -146 36 -152 4 -15 34 -17 34 -3 0 6 6 10 13 10 8 0 22 9 32
20 10 11 24 20 30 20 15 0 26 25 19 43 -2 7 -15 65 -29 128 -13 63 -27 124
-30 136 -6 18 -2 23 32 32 21 6 46 11 56 11 34 0 162 73 200 114 21 22 51 69
67 102 26 57 34 65 103 103 106 58 212 165 259 261 20 42 42 98 49 125 6 28
15 60 20 73 14 36 10 220 -5 292 -21 95 -29 116 -76 210 -41 81 -42 87 -31
128 6 23 11 98 11 165 0 178 -22 269 -96 398 -71 122 -148 198 -281 274 -83
47 -88 52 -95 90 -19 116 -75 275 -123 350 -87 137 -254 304 -355 355 -33 17
-62 36 -64 43 -2 7 -13 51 -25 99 -46 189 -160 360 -296 446 -22 14 -42 28
-45 32 -3 4 -19 15 -37 24 l-32 16 21 60 c11 33 24 60 29 60 9 0 92 35 119 50
8 5 38 20 65 34 28 14 69 41 92 61 45 39 70 44 80 18 10 -29 92 -143 152 -212
31 -35 92 -90 136 -122 44 -32 85 -62 90 -66 14 -12 129 -66 195 -91 74 -29
189 -52 260 -52 72 0 207 25 272 51 27 10 51 19 53 19 2 0 17 -19 34 -43 40
-58 159 -178 218 -219 67 -46 154 -98 164 -98 5 0 17 -4 27 -10 38 -21 153
-40 241 -40 308 0 537 165 603 435 5 22 13 87 16 144 l7 104 125 2 c131 1 204
15 214 40 3 8 16 15 30 15 13 0 48 13 78 28 29 16 59 27 66 24 13 -4 38 16
101 79 35 35 121 151 121 163 0 3 8 25 19 49 45 100 68 288 52 416 -10 81 -18
112 -47 194 -19 51 -18 57 11 57 37 0 117 44 151 82 45 52 95 134 106 176 33
123 27 277 -17 442 -7 27 -10 35 -50 130 -62 147 -170 340 -229 407 -14 15
-45 51 -69 80 -93 107 -316 303 -345 303 -11 0 -27 6 -34 13 -26 25 -76 57
-90 57 -8 0 -20 10 -27 23 -7 12 -29 30 -49 40 -77 36 -202 116 -202 130 0 4
-6 7 -14 7 -24 0 -216 191 -265 263 -56 84 -89 137 -98 157 -3 8 -25 49 -48
90 -24 41 -59 106 -79 143 -83 157 -175 277 -297 385 -47 43 -99 84 -115 92
-16 8 -31 17 -34 20 -3 3 -25 15 -49 28 -24 12 -55 28 -70 36 -36 19 -72 33
-101 41 -14 3 -41 10 -60 16 -83 21 -252 40 -334 37 l-90 -3 -36 110 c-20 61
-39 117 -42 125 -3 8 -13 38 -23 65 -27 81 -144 313 -210 415 -34 52 -70 110
-81 129 -10 18 -34 50 -52 70 -19 20 -51 61 -72 91 -68 96 -270 286 -427 400
-26 19 -50 37 -53 40 -3 3 -34 20 -70 38 -36 18 -99 50 -140 72 -41 22 -82 40
-91 40 -8 0 -19 4 -25 8 -5 5 -43 19 -84 31 -41 13 -84 27 -95 31 -19 7 -100
25 -223 50 -64 12 -209 13 -216 2 -3 -5 -30 -14 -60 -21 -31 -7 -58 -17 -61
-22 -4 -5 -15 -9 -26 -9 -25 0 -99 37 -99 50 0 6 -10 10 -23 10 -13 0 -27 4
-32 9 -12 10 -149 31 -206 31 -39 0 -88 19 -119 45 -27 23 -107 64 -113 58 -4
-3 -12 -1 -19 4 -13 10 -37 16 -153 35 -82 14 -646 21 -665 8z m620 -164 c142
-24 217 -52 269 -100 41 -39 52 -44 111 -50 108 -11 248 -43 285 -66 62 -38
68 -63 56 -214 -18 -200 -30 -388 -41 -641 -9 -183 -14 -233 -26 -246 -14 -15
-30 -17 -112 -14 -54 3 -160 15 -237 27 -154 25 -409 30 -715 14 -195 -11
-233 -3 -251 52 -9 28 -11 156 -6 547 4 280 10 547 13 592 7 81 7 83 38 93 97
31 446 35 616 6z m-833 -678 l-4 -591 -49 -13 c-193 -51 -367 -119 -617 -241
-333 -163 -623 -368 -853 -600 -141 -144 -312 -384 -391 -553 -46 -97 -118
-277 -138 -345 -9 -33 -21 -71 -25 -85 -5 -14 -14 -50 -21 -80 -17 -79 -18
-82 -29 -75 -19 12 -89 127 -139 229 -85 173 -147 387 -171 588 -65 555 169
1156 636 1633 298 304 684 508 1009 531 65 5 87 11 120 34 60 41 133 76 231
109 116 40 173 48 321 50 l123 1 -3 -592z m2102 461 c108 -24 251 -73 354
-123 210 -101 467 -301 611 -476 106 -128 256 -335 256 -353 0 -3 18 -38 41
-78 87 -153 182 -415 222 -609 33 -160 36 -185 46 -359 22 -386 -48 -739 -195
-986 -39 -64 -62 -85 -68 -62 -2 6 -9 44 -15 82 -38 223 -141 486 -274 696
-217 345 -643 710 -1146 985 -73 40 -167 88 -208 106 -69 30 -74 34 -68 58 6
26 28 314 46 600 5 91 14 212 19 270 6 58 13 134 16 170 3 36 9 72 14 79 21
35 185 35 349 0z m-4695 -1698 c4 -5 1 -42 -4 -83 -15 -100 -15 -396 -1 -493
38 -255 104 -461 211 -665 54 -101 94 -160 197 -288 l26 -33 -20 -22 c-28 -31
-60 -97 -89 -185 -46 -137 -31 -334 38 -485 21 -46 21 -48 4 -85 -128 -267
-57 -623 154 -779 25 -18 50 -37 56 -42 6 -5 14 -49 17 -97 4 -49 15 -124 26
-168 22 -87 81 -219 114 -254 l21 -23 -28 -52 c-115 -207 -285 -379 -451 -456
-110 -52 -139 -61 -220 -73 -94 -13 -248 1 -272 25 -11 10 -11 24 -2 69 15 73
7 104 -33 124 -49 25 -71 8 -121 -95 -155 -319 -427 -498 -700 -462 -107 14
-176 40 -243 91 -65 49 -117 123 -145 209 -19 57 -21 77 -15 180 4 64 9 138
12 164 5 38 2 52 -11 68 -21 22 -56 25 -93 5 -84 -44 -254 -54 -352 -22 -174
57 -286 173 -335 345 -21 73 -28 209 -15 300 16 121 46 175 175 315 135 146
141 156 121 195 -33 64 -82 57 -181 -25 -89 -74 -109 -84 -167 -84 -90 0 -154
61 -187 183 -23 79 -4 258 40 382 41 115 137 297 206 390 37 50 121 146 188
213 97 100 145 141 252 210 198 131 395 257 407 261 6 2 22 15 36 29 14 13 40
36 58 50 53 41 242 281 242 308 0 2 11 21 23 42 13 20 51 89 84 152 125 239
135 255 240 376 63 73 200 174 299 220 39 18 113 42 165 53 98 20 264 28 273
12z m6623 -2 c189 -25 368 -119 511 -268 91 -95 157 -194 257 -386 214 -408
321 -518 755 -775 169 -100 378 -279 491 -420 140 -174 262 -414 297 -585 34
-160 35 -177 17 -245 -20 -79 -57 -143 -97 -172 -41 -29 -104 -39 -148 -24
-35 12 -160 103 -160 116 0 9 -47 30 -68 30 -9 0 -30 -10 -46 -23 -28 -23 -28
-24 -15 -62 9 -24 49 -74 107 -134 166 -170 192 -226 193 -415 1 -211 -48
-336 -178 -457 -47 -43 -77 -61 -149 -87 -78 -29 -101 -33 -189 -33 -83 0
-112 4 -169 25 -86 32 -101 32 -122 1 -13 -19 -15 -38 -10 -78 3 -28 6 -108 5
-176 0 -107 -4 -133 -24 -183 -38 -94 -115 -182 -193 -222 -50 -26 -179 -56
-238 -56 -160 0 -342 91 -478 238 -58 63 -101 124 -153 222 -25 47 -53 93 -61
102 -19 23 -59 14 -90 -20 -20 -21 -23 -32 -18 -71 13 -99 15 -92 -34 -107
-69 -21 -206 -28 -280 -15 -252 46 -485 228 -636 497 l-23 40 35 92 c25 68 36
114 41 182 l6 91 46 22 c50 23 147 115 184 174 75 118 103 286 80 478 l-15
120 38 80 c64 139 70 159 85 299 11 109 4 203 -23 311 -16 64 -85 203 -124
251 l-36 44 26 33 c210 258 275 398 336 722 42 229 52 489 25 714 -8 68 -12
128 -9 132 7 12 157 11 251 -2z"/>
<path d="M4122 7894 c-57 -40 3 -204 110 -298 64 -56 164 -109 238 -127 70
-16 258 -13 321 5 96 29 136 53 208 125 82 83 118 213 76 277 -31 48 -93 38
-116 -18 -15 -38 -92 -117 -144 -150 -61 -38 -132 -58 -205 -58 -134 0 -237
55 -321 171 -65 88 -114 110 -167 73z"/>
<path d="M6701 7893 c-40 -33 -46 -123 -13 -205 28 -69 152 -169 252 -203 72
-24 263 -32 339 -15 193 44 361 199 387 357 5 34 2 44 -17 62 -25 23 -68 27
-101 10 -24 -13 -78 -69 -78 -82 0 -20 -91 -91 -159 -125 -69 -34 -82 -37
-160 -37 -60 0 -101 6 -136 19 -64 24 -147 90 -177 140 -33 56 -73 96 -96 96
-11 0 -30 -8 -41 -17z"/>
<path d="M5685 7131 c-272 -51 -423 -151 -479 -315 -25 -73 -23 -187 4 -261
73 -193 228 -320 474 -384 44 -12 82 -24 85 -27 8 -8 14 -239 7 -268 -7 -28
-92 -69 -240 -116 -266 -84 -450 -46 -624 127 -103 103 -153 216 -168 381 -7
74 -24 109 -54 113 -39 4 -63 -3 -85 -26 -23 -22 -25 -32 -25 -109 0 -319 226
-604 541 -681 38 -9 69 -22 69 -27 0 -5 -9 -44 -19 -86 -40 -156 -48 -403 -18
-527 21 -84 59 -184 92 -241 44 -76 179 -204 255 -241 120 -59 200 -77 345
-77 215 0 346 41 483 149 170 134 254 290 293 538 18 118 -2 399 -33 460 -12
23 4 43 40 50 159 29 383 195 459 342 41 78 83 224 83 286 0 64 -18 146 -37
164 -20 20 -73 18 -101 -3 -19 -15 -24 -30 -28 -83 -5 -76 -24 -170 -36 -183
-4 -6 -8 -17 -8 -26 0 -26 -75 -135 -126 -184 -54 -52 -172 -116 -259 -142
-99 -29 -221 -24 -333 15 -105 35 -225 90 -260 118 -20 17 -22 28 -25 131 -2
69 1 119 8 128 5 8 70 34 142 59 174 58 232 87 306 156 118 108 164 224 153
384 -8 116 -34 187 -88 243 -43 43 -138 95 -232 127 -155 51 -396 67 -561 36z
m322 -1480 c104 -52 185 -80 298 -100 79 -14 91 -19 102 -42 30 -62 48 -316
32 -439 -39 -293 -214 -488 -476 -529 -283 -44 -532 93 -612 337 -55 171 -50
437 13 617 14 38 16 40 80 52 68 12 165 41 250 74 79 31 76 37 76 -123 0 -79
1 -215 3 -302 l3 -159 28 -23 c29 -25 74 -31 107 -14 46 25 49 50 49 370 0
165 2 300 5 300 2 0 21 -9 42 -19z"/>
</g>
</svg>
